<svg width="35" height="35" viewBox="0 0 35 35" fill="none" xmlns="http://www.w3.org/2000/svg">
<path d="M12.396 18.229L22.6043 18.229" stroke="#12284C" stroke-width="2" stroke-linecap="round"/>
<path d="M12.396 22.604L18.2293 22.604" stroke="#12284C" stroke-width="2" stroke-linecap="round"/>
<path d="M8.021 7.504C8.021 6.66392 8.021 6.24389 8.18449 5.92302C8.3283 5.64078 8.55777 5.4113 8.84001 5.26749C9.16088 5.104 9.58092 5.104 10.421 5.104H18.6935C19.0604 5.104 19.2439 5.104 19.4165 5.14545C19.5696 5.18219 19.7159 5.2428 19.8501 5.32504C20.0015 5.41781 20.1312 5.54752 20.3906 5.80695L26.2764 11.6927C26.5358 11.9522 26.6655 12.0819 26.7583 12.2332C26.8405 12.3675 26.9011 12.5138 26.9379 12.6668C26.9793 12.8395 26.9793 13.0229 26.9793 13.3898V27.4957C26.9793 28.3358 26.9793 28.7558 26.8158 29.0767C26.672 29.3589 26.4426 29.5884 26.1603 29.7322C25.8394 29.8957 25.4194 29.8957 24.5793 29.8957H10.421C9.58092 29.8957 9.16088 29.8957 8.84001 29.7322C8.55777 29.5884 8.3283 29.3589 8.18449 29.0767C8.021 28.7558 8.021 28.3357 8.021 27.4957V7.504Z" stroke="#12284C" stroke-width="2"/>
<path d="M18.229 5.104V11.454C18.229 12.2941 18.229 12.7141 18.3925 13.035C18.5363 13.3172 18.7658 13.5467 19.048 13.6905C19.3689 13.854 19.7889 13.854 20.629 13.854H26.979" stroke="#12284C" stroke-width="2"/>
</svg>
