<svg width="41" height="40" viewBox="0 0 41 40" fill="none" xmlns="http://www.w3.org/2000/svg">
<path d="M21.4232 18.9734L20.7161 19.6805L21.4232 18.9734ZM16.4735 23.9232L15.7663 24.6303L16.4735 23.9232ZM28.1761 21.7037L28.1929 22.7036L28.1761 21.7037ZM29.997 21.8142L30.4945 20.9467L29.997 21.8142ZM30.469 22.9271L31.4384 23.1726L30.469 22.9271ZM17.4685 9.92836L17.2228 8.95903L17.4685 9.92836ZM18.5819 10.4005L17.7143 10.8977L18.5819 10.4005ZM18.6923 12.2196L17.6924 12.2029C17.6472 14.9022 18.6547 17.6192 20.7161 19.6805L21.4232 18.9734L22.1303 18.2663C20.4679 16.6039 19.6556 14.4163 19.6921 12.2363L18.6923 12.2196ZM21.4232 18.9734L20.7161 19.6805C22.7773 21.7418 25.4939 22.7489 28.1929 22.7036L28.1761 21.7037L28.1594 20.7039C25.9797 20.7405 23.7925 19.9285 22.1303 18.2663L21.4232 18.9734ZM29.6723 23.9232L28.9652 23.2161C25.7108 26.4704 20.4349 26.4704 17.1806 23.2161L16.4735 23.9232L15.7663 24.6303C19.8018 28.6657 26.344 28.6657 30.3794 24.6303L29.6723 23.9232ZM16.4735 23.9232L17.1806 23.2161C13.9262 19.9617 13.9262 14.6858 17.1806 11.4314L16.4735 10.7243L15.7663 10.0172C11.7309 14.0526 11.7309 20.5949 15.7663 24.6303L16.4735 23.9232ZM28.1761 21.7037L28.1929 22.7036C28.7338 22.6945 29.0931 22.6889 29.3493 22.7C29.4746 22.7054 29.5449 22.7139 29.5806 22.7204C29.62 22.7276 29.5756 22.7252 29.4996 22.6817L29.997 21.8142L30.4945 20.9467C30.1409 20.7439 29.7212 20.7142 29.4357 20.7019C29.1049 20.6876 28.6732 20.6953 28.1594 20.7039L28.1761 21.7037ZM29.6723 23.9232L30.3794 24.6303C30.6097 24.4 30.829 24.182 30.9936 23.9858C31.1631 23.7838 31.3507 23.5192 31.4384 23.1726L30.469 22.9271L29.4996 22.6817C29.5198 22.602 29.552 22.5924 29.4616 22.7002C29.3663 22.8137 29.2211 22.9602 28.9652 23.2161L29.6723 23.9232ZM29.997 21.8142L29.4996 22.6817L30.469 22.9271L31.4384 23.1726C31.6586 22.303 31.2726 21.3928 30.4945 20.9467L29.997 21.8142ZM16.4735 10.7243L17.1806 11.4314C17.4361 11.1758 17.5825 11.0308 17.6958 10.9356C17.8034 10.8454 17.7938 10.8775 17.7143 10.8977L17.4685 9.92836L17.2228 8.95903C16.8765 9.04682 16.6121 9.23419 16.4102 9.40358C16.2142 9.56812 15.9963 9.78723 15.7663 10.0172L16.4735 10.7243ZM18.6923 12.2196L19.6921 12.2363C19.7007 11.7231 19.7084 11.2918 19.6941 10.9613C19.6817 10.676 19.652 10.2567 19.4495 9.90329L18.5819 10.4005L17.7143 10.8977C17.6708 10.8218 17.6684 10.7775 17.6756 10.8168C17.6821 10.8524 17.6905 10.9226 17.696 11.0478C17.707 11.3037 17.7015 11.6626 17.6924 12.2029L18.6923 12.2196ZM17.4685 9.92836L17.7143 10.8977L18.5819 10.4005L19.4495 9.90329C19.0033 9.12468 18.0927 8.7385 17.2228 8.95903L17.4685 9.92836Z" fill="#12284C"/>
</svg>
