<svg width="35" height="35" viewBox="0 0 35 35" fill="none" xmlns="http://www.w3.org/2000/svg">
<path d="M21.4165 3.375V4.83301C21.4165 5.04044 21.4185 5.29735 21.3892 5.51562C21.3559 5.76263 21.2669 6.10374 20.9771 6.39355C20.6872 6.68337 20.3461 6.7724 20.0991 6.80566C19.8808 6.83501 19.6239 6.83301 19.4165 6.83301H15.5835C15.3761 6.83301 15.1201 6.83499 14.9019 6.80566C14.6548 6.77245 14.3129 6.68355 14.0229 6.39355C13.7332 6.10376 13.6441 5.76259 13.6108 5.51562C13.5815 5.29735 13.5835 5.04044 13.5835 4.83301V3.375H21.4165Z" stroke="#12284C" stroke-width="2"/>
<rect x="9.75" y="3.9165" width="15.5" height="27.1667" rx="1" stroke="#12284C" stroke-width="2"/>
<ellipse cx="17.4998" cy="26.2498" rx="1.45833" ry="1.45833" fill="#12284C"/>
</svg>
